<?xml version="1.0" encoding="UTF-8" standalone="no"?>
<!DOCTYPE svg PUBLIC "-//W3C//DTD SVG 1.1//EN" "http://www.w3.org/Graphics/SVG/1.1/DTD/svg11.dtd">
<svg width="100%" height="100%" viewBox="0 0 945 945" version="1.1" xmlns="http://www.w3.org/2000/svg" xmlns:xlink="http://www.w3.org/1999/xlink" xml:space="preserve" xmlns:serif="http://www.serif.com/" style="fill-rule:evenodd;clip-rule:evenodd;stroke-linejoin:round;stroke-miterlimit:2;">
    <g transform="matrix(1,0,0,1,-433.437,-1006.13)">
        <g transform="matrix(1.20511,0,0,1.24841,-88.9043,-249.936)">
            <path d="M1217.5,1195.35L1217.5,1573.79C1217.5,1678.22 1129.66,1763 1021.48,1763L629.452,1763C521.268,1763 433.437,1678.22 433.437,1573.79L433.437,1195.35C433.437,1090.92 521.268,1006.13 629.452,1006.13L1021.48,1006.13C1129.66,1006.13 1217.5,1090.92 1217.5,1195.35Z" style="fill:rgb(0,175,149);"/>
        </g>
        <g transform="matrix(5.08783,0,0,7.62669,-2900.47,-2936.08)">
            <g transform="matrix(1.65741,0,0,1,-444.143,0)">
                <text x="675.596px" y="555.16px" style="font-family:'UbuntuMono-Bold', 'Ubuntu Mono', monospace;font-weight:700;font-size:50px;fill:white;">M</text>
            </g>
            <g transform="matrix(0.828704,0,0,1,122.824,0)">
                <text x="717.031px" y="555.16px" style="font-family:'UbuntuMono-Regular', 'Ubuntu Mono', monospace;font-size:50px;fill:rgb(147,255,232);">odbus</text>
            </g>
            <g transform="matrix(1.65741,0,0,1,-444.143,0)">
                <text x="675.596px" y="591.968px" style="font-family:'UbuntuMono-Bold', 'Ubuntu Mono', monospace;font-weight:700;font-size:50px;fill:white;">S</text>
            </g>
            <g transform="matrix(0.828704,0,0,1,122.824,0)">
                <text x="717.031px" y="591.968px" style="font-family:'UbuntuMono-Regular', 'Ubuntu Mono', monospace;font-size:50px;fill:rgb(147,255,232);">imple</text>
            </g>
            <g transform="matrix(1.65741,0,0,1,-444.143,0)">
                <text x="675.596px" y="628.776px" style="font-family:'UbuntuMono-Bold', 'Ubuntu Mono', monospace;font-weight:700;font-size:50px;fill:white;">L</text>
            </g>
            <g transform="matrix(0.828704,0,0,1,122.824,0)">
                <g transform="matrix(50,0,0,50,842.031,628.776)">
                </g>
                <text x="717.031px" y="628.776px" style="font-family:'UbuntuMono-Regular', 'Ubuntu Mono', monospace;font-size:50px;fill:rgb(147,255,232);">ogger</text>
            </g>
        </g>
    </g>
</svg>
