<svg xmlns="http://www.w3.org/2000/svg" viewBox="0 0 24 24" fill="currentColor">
  <path d="M12 18.75A6.75 6.75 0 1 1 12 5.25a6.75 6.75 0 0 1 0 13.5Zm0-2a4.75 4.75 0 1 0 0-9.5 4.75 4.75 0 0 0 0 9.5Z"/>
  <path d="M12 2a1 1 0 0 1 1 1v1.5a1 1 0 1 1-2 0V3a1 1 0 0 1 1-1Zm0 17a1 1 0 0 1 1 1v1.5a1 1 0 1 1-2 0V20a1 1 0 0 1 1-1ZM4.22 4.22a1 1 0 0 1 1.42 0l1.06 1.06a1 1 0 0 1-1.42 1.42L4.22 5.64a1 1 0 0 1 0-1.42Zm12.08 12.08a1 1 0 0 1 1.42 0l1.06 1.06a1 1 0 1 1-1.42 1.42l-1.06-1.06a1 1 0 0 1 0-1.42ZM2 13a1 1 0 0 1 0-2h1.5a1 1 0 1 1 0 2H2Zm17.5 0a1 1 0 0 1 0-2H21a1 1 0 1 1 0 2h-1.5ZM4.22 18.36a1 1 0 0 1 0-1.42l1.06-1.06a1 1 0 1 1 1.42 1.42L5.64 18.36a1 1 0 0 1-1.42 0Zm12.08-12.08a1 1 0 0 1 0-1.42l1.06-1.06a1 1 0 1 1 1.42 1.42l-1.06 1.06a1 1 0 0 1-1.42 0Z"/>
</svg>
